<?xml version="1.0" encoding="utf-8"?>
<!-- Generator: Adobe Illustrator 24.1.2, SVG Export Plug-In . SVG Version: 6.00 Build 0)  -->
<svg version="1.1" id="Layer_1" xmlns="http://www.w3.org/2000/svg" xmlns:xlink="http://www.w3.org/1999/xlink" x="0px" y="0px"
	 viewBox="0 0 250 250" style="enable-background:new 0 0 250 250;" xml:space="preserve">
<style type="text/css">
	.st0{fill:#FFFFFF;}
	.st1{fill-rule:evenodd;clip-rule:evenodd;fill:#FFFFFF;}
</style>
<g>
	<path class="st0" d="M155.8,172.1c26.6-12.1,43.8-38.7,43.8-67.9c0-15.8-4.9-30.8-14.1-43.6c-1.1-1.6-3.3-1.9-4.9-0.8
		c-1.6,1.1-1.9,3.3-0.8,4.9c8.3,11.5,12.7,25.2,12.7,39.4c0,26.4-15.6,50.6-39.7,61.5c-4.7,2.1-7.7,6.8-7.7,11.9v15.9h-40.3v-15.9
		c0-5.1-3-9.7-7.6-11.8c-24.3-11-39.9-35.2-39.7-61.9c0.2-37.1,30.4-67.2,67.5-67.2c16.3,0,32,5.9,44.3,16.6c1.5,1.3,3.7,1.1,5-0.3
		c1.3-1.5,1.1-3.7-0.3-5C160.3,36.1,143,29.6,125,29.6c-19.9,0-38.6,7.7-52.6,21.7c-14.1,14-21.8,32.6-21.9,52.5
		c-0.1,29.4,17.1,56.2,43.9,68.3c2.1,1,3.5,3.1,3.5,5.4v15.9h-1.2c-4.5,0-8.2,3.7-8.2,8.3v5.7c0,4.3,3.4,7.9,7.6,8.2l3,18.5
		c1,6.3,6.4,10.9,12.8,10.9h5c1.9,0,3.5-1.6,3.5-3.5c0-1.9-1.6-3.5-3.5-3.5h-5c-2.9,0-5.4-2.1-5.9-5l-2.8-17.3h5.5
		c1.9,0,3.5-1.6,3.5-3.5c0-1.9-1.6-3.5-3.5-3.5h-12c-0.7,0-1.2-0.5-1.2-1.2v-5.7c0-0.7,0.5-1.2,1.2-1.2h56.8c0.7,0,1.2,0.5,1.2,1.2
		v5.7c0,0.7-0.5,1.2-1.2,1.2H125c-1.9,0-3.5,1.6-3.5,3.5c0,1.9,1.6,3.5,3.5,3.5h21.9l-2.8,17.3c-0.5,2.9-2.9,5-5.9,5h-5
		c-1.9,0-3.5,1.6-3.5,3.5c0,1.9,1.6,3.5,3.5,3.5h5c6.4,0,11.8-4.6,12.8-10.9l3-18.5c4.3-0.3,7.6-3.9,7.6-8.2v-5.7
		c0-4.6-3.7-8.3-8.2-8.3h-1.2v-15.9C152.2,175.2,153.6,173.1,155.8,172.1L155.8,172.1z M155.8,172.1"/>
	<path class="st0" d="M81.7,123.1v20.8c0,1.9,1.6,3.5,3.5,3.5h79.6c1.9,0,3.5-1.6,3.5-3.5v-20.8c0-12.4-10.1-22.5-22.5-22.5h-2.6
		c5.5-5,9-12.2,9-20.2c0-15-12.2-27.2-27.2-27.2S97.8,65.5,97.8,80.5c0,8,3.5,15.2,9,20.2h-2.6C91.8,100.6,81.7,110.7,81.7,123.1
		L81.7,123.1z M104.8,80.5c0-11.1,9-20.2,20.2-20.2c11.1,0,20.2,9,20.2,20.2c0,11.1-9,20.2-20.2,20.2
		C113.9,100.6,104.8,91.6,104.8,80.5L104.8,80.5z M145.8,107.7c8.5,0,15.4,6.9,15.4,15.4v17.3h-12.9v-6c0-1.9-1.6-3.5-3.5-3.5
		c-1.9,0-3.5,1.6-3.5,3.5v6h-32.7v-6c0-1.9-1.6-3.5-3.5-3.5c-1.9,0-3.5,1.6-3.5,3.5v6H88.7v-17.3c0-8.5,6.9-15.4,15.4-15.4H145.8z
		 M145.8,107.7"/>
	<path class="st0" d="M125,21.5c1.9,0,3.5-1.6,3.5-3.5V8.5c0-1.9-1.6-3.5-3.5-3.5c-1.9,0-3.5,1.6-3.5,3.5V18
		C121.5,19.9,123.1,21.5,125,21.5L125,21.5z M125,21.5"/>
	<path class="st0" d="M78.9,31.3c0.7,1.1,1.8,1.8,3,1.8c0.6,0,1.2-0.2,1.8-0.5c1.7-1,2.3-3.1,1.3-4.8l-4.7-8.2
		c-1-1.7-3.1-2.3-4.8-1.3c-1.7,1-2.3,3.1-1.3,4.8L78.9,31.3z M78.9,31.3"/>
	<path class="st0" d="M40.4,59.4l8.2,4.7c0.6,0.3,1.2,0.5,1.8,0.5c1.2,0,2.4-0.6,3-1.8c1-1.7,0.4-3.8-1.3-4.8l-8.2-4.7
		c-1.7-1-3.8-0.4-4.8,1.3C38.1,56.3,38.7,58.4,40.4,59.4L40.4,59.4z M40.4,59.4"/>
	<path class="st0" d="M42.3,104.2c0-1.9-1.6-3.5-3.5-3.5h-9.5c-1.9,0-3.5,1.6-3.5,3.5c0,1.9,1.6,3.5,3.5,3.5h9.5
		C40.8,107.7,42.3,106.1,42.3,104.2L42.3,104.2z M42.3,104.2"/>
	<path class="st0" d="M48.6,144.2l-8.2,4.7c-1.7,1-2.3,3.1-1.3,4.8c0.6,1.1,1.8,1.8,3,1.8c0.6,0,1.2-0.2,1.8-0.5l8.2-4.7
		c1.7-1,2.3-3.1,1.3-4.8C52.4,143.8,50.3,143.2,48.6,144.2L48.6,144.2z M48.6,144.2"/>
	<path class="st0" d="M166.3,32.6c0.6,0.3,1.2,0.5,1.8,0.5c1.2,0,2.4-0.6,3-1.8l4.7-8.2c1-1.7,0.4-3.8-1.3-4.8
		c-1.7-1-3.8-0.4-4.8,1.3l-4.7,8.2C164.1,29.5,164.7,31.6,166.3,32.6L166.3,32.6z M166.3,32.6"/>
	<path class="st0" d="M199.6,64.6c0.6,0,1.2-0.2,1.8-0.5l8.2-4.7c1.7-1,2.3-3.1,1.3-4.8c-1-1.7-3.1-2.3-4.8-1.3l-8.2,4.7
		c-1.7,1-2.3,3.1-1.3,4.8C197.2,64,198.4,64.6,199.6,64.6L199.6,64.6z M199.6,64.6"/>
	<path class="st0" d="M220.6,100.6h-9.5c-1.9,0-3.5,1.6-3.5,3.5c0,1.9,1.6,3.5,3.5,3.5h9.5c1.9,0,3.5-1.6,3.5-3.5
		C224.2,102.2,222.6,100.6,220.6,100.6L220.6,100.6z M220.6,100.6"/>
	<path class="st0" d="M209.6,148.9l-8.2-4.7c-1.7-1-3.8-0.4-4.8,1.3c-1,1.7-0.4,3.8,1.3,4.8l8.2,4.7c0.6,0.3,1.2,0.5,1.8,0.5
		c1.2,0,2.4-0.6,3-1.8C211.9,152.1,211.3,149.9,209.6,148.9L209.6,148.9z M209.6,148.9"/>
</g>
<g>
	<path class="st0" d="M303.2,236h76c8.4,0,15.2-6.8,15.2-15.2h-7.6c0,4.2-3.4,7.6-7.6,7.6h-76c-4.2,0-7.6-3.4-7.6-7.6v-7.6h57v-7.6
		h-57v-79.8h98.8v-6.5c-0.1-17-10.7-32.1-26.6-38v-20c0-2.1-1.7-3.8-3.8-3.8h-11.4v-19H364c2.1,0,3.8-1.7,3.8-3.8H389l2.7,2.7
		c0.7,0.7,1.7,1.1,2.7,1.1h15.2c2.1,0,3.8-1.7,3.8-3.8c0-12.6-10.2-22.8-22.8-22.8h-22.8c0-2.1-1.7-3.8-3.8-3.8h-45.6
		c-2.1,0-3.8,1.7-3.8,3.8v22.8c0,2.1,1.7,3.8,3.8,3.8h11.4v19h-11.4c-2.1,0-3.8,1.7-3.8,3.8v20c-5.2,1.9-10,4.9-14,8.7l5.2,5.5
		c3.7-3.5,8.2-6.1,13.1-7.6h10.9v30.4h-34.2c0.2-6.8,2.5-13.3,6.6-18.7l-6.1-4.6c-5.3,7-8.2,15.6-8.2,24.4v101.5
		C288,229.2,294.8,236,303.2,236L303.2,236z M367.8,19.4h22.8c6.9,0,13,4.7,14.7,11.4H396l-2.7-2.7c-0.7-0.7-1.7-1.1-2.7-1.1h-22.8
		V19.4z M345,118.2h-7.6V87.8h7.6V118.2z M386.8,118.2h-34.2V87.8h10.9C376.9,91.9,386.3,104.1,386.8,118.2L386.8,118.2z
		 M322.2,30.8V15.6h38v15.2H322.2z M345,38.4v19h-7.6v-19H345z M322.2,80.2V65h38v15.2H322.2z M311.3,115.3l-7.4-1.7
		c1.9-8.2,7.8-14.9,15.6-17.9l2.7,7.1C316.7,104.9,312.6,109.5,311.3,115.3L311.3,115.3z M402,49.8c-1.3,0-2.6,0.7-3.3,1.8L389,67.9
		c-6,10.1,1.2,23.7,13,23.7c8.4,0,15.2-6.8,15.2-15.2c0.1-3-0.7-5.9-2.2-8.5l-9.8-16.3C404.6,50.5,403.3,49.8,402,49.8L402,49.8z
		 M409.6,75.8c0.1,4.2-3,8.2-7.6,8.2c-6,0-9.5-7.1-6.5-12.2L402,61l6.5,10.9C409.2,73,409.6,74.4,409.6,75.8L409.6,75.8z M516,148.6
		v60.8c0,2.1-1.7,3.8-3.8,3.8H380.8c-6.9,0-13.5-2.6-18.4-7.4l-41.9-40.2c-7.4-7-7.8-18.7-0.9-26.2c6.9-7.5,18.6-8,26.2-1.1l0.1,0
		l38.7,36.9h40.3c1,0,2-0.4,2.7-1.1c0.7-0.7,1.1-1.7,1.1-2.7v-0.2c0-2-1.6-3.6-3.6-3.6h-32.5c-9.4,0-17.1-7.7-17.1-17.1
		c0-9.4,7.7-17.1,17.1-17.1h39.3l12.5-4.2c17.5-5.8,36.7-4.2,52.9,4.6l-3.6,6.7c-14.4-7.8-31.4-9.3-46.9-4.1l-13.1,4.4
		c-0.4,0.1-0.8,0.2-1.2,0.2h-39.9c-5.2,0-9.5,4.3-9.5,9.5c0,5.2,4.3,9.5,9.5,9.5H425c6.2,0,11.2,5,11.2,11.2v0.2
		c0,3-1.2,5.9-3.3,8.1c-2.1,2.1-5,3.3-8.1,3.3H383c-1,0-1.9-0.4-2.6-1l-39.8-37.9c-4.5-4.1-11.4-3.8-15.5,0.7
		c-4.1,4.4-3.8,11.4,0.6,15.5l0,0l41.9,40.2c3.5,3.4,8.3,5.3,13.2,5.3h127.6v-55l-8.6-6.1l4.4-6.2l10.2,7.3
		C515.4,146.2,516,147.4,516,148.6L516,148.6z M516,148.6"/>
</g>
<g>
	<path class="st1" d="M697.9,218.4c-13.2,10.9-32,12.2-51.9,5.5c-19.2-6.4-39.4-20.4-56.3-40.4c-0.1-0.1-0.2-0.3-0.4-0.4
		c-16.8-20.1-27-42.4-30-62.4c-3.1-20.8,1.5-39.2,14.7-50.3l0.1-0.1c3.3-2.7,8.2-2,13.6,1.2c4.1,2.4,8.8,6.5,13.1,11.6
		c0.1,0.1,0.2,0.3,0.3,0.4c4.2,5,8.7,11.8,11.7,17.7c3.9,7.5,5.3,14.4,1.7,17.4c-4.1,3.4-6.4,8.2-6.8,13.2c-0.4,5,1,10.1,4.4,14.2
		l18.1,21.6c3.4,4.1,8.2,6.4,13.2,6.8c5,0.4,10.1-1,14.2-4.4c3.6-3,10.1-0.4,16.8,4.7c9.4,7.1,20.6,18.6,24.9,29.9
		c2.2,5.7,2,10.6-1,13.4C698.3,218.1,698.1,218.3,697.9,218.4L697.9,218.4z M721.8,190.2c-2.1,1.1-3,3.7-1.9,5.9
		c1.1,2.2,3.7,3.1,5.9,2c14.1-7.1,26.3-17.5,35.6-30c12.6-16.9,20-37.9,20-60.5c0-28-11.4-53.4-29.7-71.8C733.4,17.4,708,6,680,6
		c-19.5,0-37.7,5.5-53.2,15.1c-10.9,6.7-20.5,15.5-28.2,25.8c-3.3,4.4,3.8,9.7,7.1,5.3c7-9.4,15.8-17.4,25.7-23.6
		c14.1-8.7,30.7-13.7,48.6-13.7c25.6,0,48.7,10.4,65.5,27.1c16.8,16.8,27.1,39.9,27.1,65.5c0,20.7-6.8,39.8-18.3,55.2
		C745.8,174.2,734.7,183.6,721.8,190.2L721.8,190.2z M707.8,196.1c2.4,0,4.4,1.9,4.4,4.4c0,2.4-2,4.4-4.4,4.4
		c-2.4,0-4.4-1.9-4.4-4.4C703.4,198.1,705.4,196.1,707.8,196.1L707.8,196.1z M593.1,59.7c-2.4,0-4.4,1.9-4.4,4.4
		c0,2.4,1.9,4.4,4.4,4.4c2.4,0,4.4-1.9,4.4-4.4C597.5,61.7,595.5,59.7,593.1,59.7L593.1,59.7z M740.8,131.5c0,2.5-2,4.4-4.4,4.4
		c-2.5,0-4.4-2-4.4-4.4v-19.6H709v0c-1,0-2-0.3-2.8-1c-1.9-1.6-2.1-4.4-0.6-6.2l27.1-32.5c0.8-1.2,2.1-1.9,3.7-1.9
		c2.5,0,4.4,2,4.4,4.4V103h5.4c2.5,0,4.4,2,4.4,4.4s-2,4.4-4.4,4.4h-5.4V131.5z M731.9,103.1h-13.4L731.9,87V103.1z M667.6,92.2
		c0-3.6,1.5-6.9,3.8-9.2c2.4-2.4,5.6-3.8,9.2-3.8c3.6,0,6.9,1.5,9.2,3.8c2.4,2.4,3.8,5.6,3.8,9.2c0,3.4-1.3,5.9-3.5,8
		c-2.6,2.5-6.6,4.6-11.2,6.9c-11.2,5.6-19.7,22.3-19.7,22.3c-1.1,2.2-0.3,4.9,1.9,6c0.7,0.3,1.3,0.5,2,0.5v0h35c2.5,0,4.4-2,4.4-4.4
		c0-2.5-2-4.4-4.4-4.4H671c2.9-4.3,7.2-9.6,11.9-12c5.2-2.6,9.9-5.1,13.4-8.5c3.9-3.7,6.3-8.2,6.3-14.5c0-6.1-2.5-11.5-6.4-15.5
		c-4-4-9.4-6.4-15.5-6.4c-6.1,0-11.5,2.5-15.5,6.4c-4,4-6.4,9.4-6.4,15.5c0,2.5,2,4.4,4.4,4.4C665.6,96.6,667.6,94.7,667.6,92.2
		L667.6,92.2z M648.9,215.5c17.1,5.7,32.9,4.8,43.6-4.1l0,0c0,0-0.5-1.4-1.3-3.7c-3.7-9.6-14.1-20-22-26c-3.5-2.7-6.6-4.3-6.9-4.1
		c-6,5-12.3,6.2-19.5,5.6c-7.2-0.6-14.2-4-19.2-10l-18.1-21.6c-5-6-7.1-13.4-6.5-20.6c0.6-7.2,3.5-13.7,9.4-18.7
		C606,104.8,596,91.1,594.2,89c-3.7-4.4-7.6-7.9-11-9.9c-2-1.2-3.2-1.9-3.4-1.9c-0.1,0-0.1,0.1-0.2,0.1c-10.5,8.9-14.1,24.3-11.5,42
		c2.8,18.5,12.4,39.4,28.2,58.3l0,0C612.2,196.5,631.1,209.6,648.9,215.5L648.9,215.5z M648.9,215.5"/>
</g>
</svg>
