<?xml version="1.0" encoding="utf-8"?>
<!-- Generator: Adobe Illustrator 24.1.2, SVG Export Plug-In . SVG Version: 6.00 Build 0)  -->
<svg version="1.1" id="Layer_1" xmlns="http://www.w3.org/2000/svg" xmlns:xlink="http://www.w3.org/1999/xlink" x="0px" y="0px"
	 viewBox="0 0 250 250" style="enable-background:new 0 0 250 250;" xml:space="preserve">
<style type="text/css">
	.st0{fill:#FFFFFF;}
	.st1{fill-rule:evenodd;clip-rule:evenodd;fill:#FFFFFF;}
</style>
<g>
	<path class="st0" d="M-121.2,175.1c26.6-12.1,43.8-38.7,43.8-67.9c0-15.8-4.9-30.8-14.1-43.6c-1.1-1.6-3.3-1.9-4.9-0.8
		c-1.6,1.1-1.9,3.3-0.8,4.9c8.3,11.5,12.7,25.2,12.7,39.4c0,26.4-15.6,50.6-39.7,61.5c-4.7,2.1-7.7,6.8-7.7,11.9v15.9h-40.3v-15.9
		c0-5.1-3-9.7-7.6-11.8c-24.3-11-39.9-35.2-39.7-61.9c0.2-37.1,30.4-67.2,67.5-67.2c16.3,0,32,5.9,44.3,16.6c1.5,1.3,3.7,1.1,5-0.3
		s1.1-3.7-0.3-5C-116.7,39.1-134,32.6-152,32.6c-19.9,0-38.6,7.7-52.6,21.7c-14.1,14-21.8,32.6-21.9,52.5
		c-0.1,29.4,17.1,56.2,43.9,68.3c2.1,1,3.5,3.1,3.5,5.4v15.9h-1.2c-4.5,0-8.2,3.7-8.2,8.3v5.7c0,4.3,3.4,7.9,7.6,8.2l3,18.5
		c1,6.3,6.4,10.9,12.8,10.9h5c1.9,0,3.5-1.6,3.5-3.5c0-1.9-1.6-3.5-3.5-3.5h-5c-2.9,0-5.4-2.1-5.9-5l-2.8-17.3h5.5
		c1.9,0,3.5-1.6,3.5-3.5c0-1.9-1.6-3.5-3.5-3.5h-12c-0.7,0-1.2-0.5-1.2-1.2v-5.7c0-0.7,0.5-1.2,1.2-1.2h56.8c0.7,0,1.2,0.5,1.2,1.2
		v5.7c0,0.7-0.5,1.2-1.2,1.2H-152c-1.9,0-3.5,1.6-3.5,3.5c0,1.9,1.6,3.5,3.5,3.5h21.9l-2.8,17.3c-0.5,2.9-2.9,5-5.9,5h-5
		c-1.9,0-3.5,1.6-3.5,3.5c0,1.9,1.6,3.5,3.5,3.5h5c6.4,0,11.8-4.6,12.8-10.9l3-18.5c4.3-0.3,7.6-3.9,7.6-8.2v-5.7
		c0-4.6-3.7-8.3-8.2-8.3h-1.2v-15.9C-124.8,178.2-123.4,176.1-121.2,175.1L-121.2,175.1z M-121.2,175.1"/>
	<path class="st0" d="M-195.3,126.1v20.8c0,1.9,1.6,3.5,3.5,3.5h79.6c1.9,0,3.5-1.6,3.5-3.5v-20.8c0-12.4-10.1-22.5-22.5-22.5h-2.6
		c5.5-5,9-12.2,9-20.2c0-15-12.2-27.2-27.2-27.2c-15,0-27.2,12.2-27.2,27.2c0,8,3.5,15.2,9,20.2h-2.6
		C-185.2,103.6-195.3,113.7-195.3,126.1L-195.3,126.1z M-172.2,83.5c0-11.1,9-20.2,20.2-20.2c11.1,0,20.2,9,20.2,20.2
		c0,11.1-9,20.2-20.2,20.2C-163.1,103.6-172.2,94.6-172.2,83.5L-172.2,83.5z M-131.2,110.7c8.5,0,15.4,6.9,15.4,15.4v17.3h-12.9v-6
		c0-1.9-1.6-3.5-3.5-3.5c-1.9,0-3.5,1.6-3.5,3.5v6h-32.7v-6c0-1.9-1.6-3.5-3.5-3.5c-1.9,0-3.5,1.6-3.5,3.5v6h-12.9v-17.3
		c0-8.5,6.9-15.4,15.4-15.4H-131.2z M-131.2,110.7"/>
	<path class="st0" d="M-152,24.5c1.9,0,3.5-1.6,3.5-3.5v-9.5c0-1.9-1.6-3.5-3.5-3.5c-1.9,0-3.5,1.6-3.5,3.5V21
		C-155.5,22.9-153.9,24.5-152,24.5L-152,24.5z M-152,24.5"/>
	<path class="st0" d="M-198.1,34.3c0.7,1.1,1.8,1.8,3,1.8c0.6,0,1.2-0.2,1.8-0.5c1.7-1,2.3-3.1,1.3-4.8l-4.7-8.2
		c-1-1.7-3.1-2.3-4.8-1.3c-1.7,1-2.3,3.1-1.3,4.8L-198.1,34.3z M-198.1,34.3"/>
	<path class="st0" d="M-236.6,62.4l8.2,4.7c0.6,0.3,1.2,0.5,1.8,0.5c1.2,0,2.4-0.6,3-1.8c1-1.7,0.4-3.8-1.3-4.8l-8.2-4.7
		c-1.7-1-3.8-0.4-4.8,1.3C-238.9,59.3-238.3,61.4-236.6,62.4L-236.6,62.4z M-236.6,62.4"/>
	<path class="st0" d="M-234.7,107.2c0-1.9-1.6-3.5-3.5-3.5h-9.5c-1.9,0-3.5,1.6-3.5,3.5c0,1.9,1.6,3.5,3.5,3.5h9.5
		C-236.2,110.7-234.7,109.1-234.7,107.2L-234.7,107.2z M-234.7,107.2"/>
	<path class="st0" d="M-228.4,147.2l-8.2,4.7c-1.7,1-2.3,3.1-1.3,4.8c0.6,1.1,1.8,1.8,3,1.8c0.6,0,1.2-0.2,1.8-0.5l8.2-4.7
		c1.7-1,2.3-3.1,1.3-4.8C-224.6,146.8-226.7,146.2-228.4,147.2L-228.4,147.2z M-228.4,147.2"/>
	<path class="st0" d="M-110.7,35.6c0.6,0.3,1.2,0.5,1.8,0.5c1.2,0,2.4-0.6,3-1.8l4.7-8.2c1-1.7,0.4-3.8-1.3-4.8
		c-1.7-1-3.8-0.4-4.8,1.3l-4.7,8.2C-112.9,32.5-112.3,34.6-110.7,35.6L-110.7,35.6z M-110.7,35.6"/>
	<path class="st0" d="M-77.4,67.6c0.6,0,1.2-0.2,1.8-0.5l8.2-4.7c1.7-1,2.3-3.1,1.3-4.8c-1-1.7-3.1-2.3-4.8-1.3l-8.2,4.7
		c-1.7,1-2.3,3.1-1.3,4.8C-79.8,67-78.6,67.6-77.4,67.6L-77.4,67.6z M-77.4,67.6"/>
	<path class="st0" d="M-56.4,103.6h-9.5c-1.9,0-3.5,1.6-3.5,3.5c0,1.9,1.6,3.5,3.5,3.5h9.5c1.9,0,3.5-1.6,3.5-3.5
		C-52.8,105.2-54.4,103.6-56.4,103.6L-56.4,103.6z M-56.4,103.6"/>
	<path class="st0" d="M-67.4,151.9l-8.2-4.7c-1.7-1-3.8-0.4-4.8,1.3c-1,1.7-0.4,3.8,1.3,4.8l8.2,4.7c0.6,0.3,1.2,0.5,1.8,0.5
		c1.2,0,2.4-0.6,3-1.8C-65.1,155.1-65.7,152.9-67.4,151.9L-67.4,151.9z M-67.4,151.9"/>
</g>
<g>
	<path class="st0" d="M26.2,239h76c8.4,0,15.2-6.8,15.2-15.2h-7.6c0,4.2-3.4,7.6-7.6,7.6h-76c-4.2,0-7.6-3.4-7.6-7.6v-7.6h57v-7.6
		h-57v-79.8h98.8v-6.5c-0.1-17-10.7-32.1-26.6-38v-20c0-2.1-1.7-3.8-3.8-3.8H75.6v-19H87c2.1,0,3.8-1.7,3.8-3.8H112l2.7,2.7
		c0.7,0.7,1.7,1.1,2.7,1.1h15.2c2.1,0,3.8-1.7,3.8-3.8c0-12.6-10.2-22.8-22.8-22.8H90.8c0-2.1-1.7-3.8-3.8-3.8H41.4
		c-2.1,0-3.8,1.7-3.8,3.8v22.8c0,2.1,1.7,3.8,3.8,3.8h11.4v19H41.4c-2.1,0-3.8,1.7-3.8,3.8v20c-5.2,1.9-10,4.9-14,8.7l5.2,5.5
		c3.7-3.5,8.2-6.1,13.1-7.6h10.9v30.4H18.6c0.2-6.8,2.5-13.3,6.6-18.7l-6.1-4.6c-5.3,7-8.2,15.6-8.2,24.4v101.5
		C11,232.2,17.8,239,26.2,239L26.2,239z M90.8,22.4h22.8c6.9,0,13,4.7,14.7,11.4H119l-2.7-2.7c-0.7-0.7-1.7-1.1-2.7-1.1H90.8V22.4z
		 M68,121.2h-7.6V90.8H68V121.2z M109.8,121.2H75.6V90.8h10.9C99.9,94.9,109.3,107.1,109.8,121.2L109.8,121.2z M45.2,33.8V18.6h38
		v15.2H45.2z M68,41.4v19h-7.6v-19H68z M45.2,83.2V68h38v15.2H45.2z M34.3,118.3l-7.4-1.7c1.9-8.2,7.8-14.9,15.6-17.9l2.7,7.1
		C39.7,107.9,35.6,112.5,34.3,118.3L34.3,118.3z M125,52.8c-1.3,0-2.6,0.7-3.3,1.8L112,70.9c-6,10.1,1.2,23.7,13,23.7
		c8.4,0,15.2-6.8,15.2-15.2c0.1-3-0.7-5.9-2.2-8.5l-9.8-16.3C127.6,53.5,126.3,52.8,125,52.8L125,52.8z M132.6,78.8
		c0.1,4.2-3,8.2-7.6,8.2c-6,0-9.5-7.1-6.5-12.2L125,64l6.5,10.9C132.2,76,132.6,77.4,132.6,78.8L132.6,78.8z M239,151.6v60.8
		c0,2.1-1.7,3.8-3.8,3.8H103.8c-6.9,0-13.5-2.6-18.4-7.4l-41.9-40.2c-7.4-7-7.8-18.7-0.9-26.2c6.9-7.5,18.6-8,26.2-1.1l0.1,0
		l38.7,36.9h40.3c1,0,2-0.4,2.7-1.1c0.7-0.7,1.1-1.7,1.1-2.7v-0.2c0-2-1.6-3.6-3.6-3.6h-32.5c-9.4,0-17.1-7.7-17.1-17.1
		c0-9.4,7.7-17.1,17.1-17.1h39.3l12.5-4.2c17.5-5.8,36.7-4.2,52.9,4.6l-3.6,6.7c-14.4-7.8-31.4-9.3-46.9-4.1l-13.1,4.4
		c-0.4,0.1-0.8,0.2-1.2,0.2h-39.9c-5.2,0-9.5,4.3-9.5,9.5c0,5.2,4.3,9.5,9.5,9.5H148c6.2,0,11.2,5,11.2,11.2v0.2
		c0,3-1.2,5.9-3.3,8.1c-2.1,2.1-5,3.3-8.1,3.3H106c-1,0-1.9-0.4-2.6-1l-39.8-37.9c-4.5-4.1-11.4-3.8-15.5,0.7
		c-4.1,4.4-3.8,11.4,0.6,15.5l0,0l41.9,40.2c3.5,3.4,8.3,5.3,13.2,5.3h127.6v-55l-8.6-6.1l4.4-6.2l10.2,7.3
		C238.4,149.2,239,150.4,239,151.6L239,151.6z M239,151.6"/>
</g>
<g>
	<path class="st1" d="M420.9,221.4c-13.2,10.9-32,12.2-51.9,5.5c-19.2-6.4-39.4-20.4-56.3-40.4c-0.1-0.1-0.2-0.3-0.4-0.4
		c-16.8-20.1-27-42.4-30-62.4c-3.1-20.8,1.5-39.2,14.7-50.3l0.1-0.1c3.3-2.7,8.2-2,13.6,1.2c4.1,2.4,8.8,6.5,13.1,11.6
		c0.1,0.1,0.2,0.3,0.3,0.4c4.2,5,8.7,11.8,11.7,17.7c3.9,7.5,5.3,14.4,1.7,17.4c-4.1,3.4-6.4,8.2-6.8,13.2c-0.4,5,1,10.1,4.4,14.2
		l18.1,21.6c3.4,4.1,8.2,6.4,13.2,6.8c5,0.4,10.1-1,14.2-4.4c3.6-3,10.1-0.4,16.8,4.7c9.4,7.1,20.6,18.6,24.9,29.9
		c2.2,5.7,2,10.6-1,13.4C421.3,221.1,421.1,221.3,420.9,221.4L420.9,221.4z M444.8,193.2c-2.1,1.1-3,3.7-1.9,5.9
		c1.1,2.2,3.7,3.1,5.9,2c14.1-7.1,26.3-17.5,35.6-30c12.6-16.9,20-37.9,20-60.5c0-28-11.4-53.4-29.7-71.8C456.4,20.4,431,9,403,9
		c-19.5,0-37.7,5.5-53.2,15.1c-10.9,6.7-20.5,15.5-28.2,25.8c-3.3,4.4,3.8,9.7,7.1,5.3c7-9.4,15.8-17.4,25.7-23.6
		c14.1-8.7,30.7-13.7,48.6-13.7c25.6,0,48.7,10.4,65.5,27.1s27.1,39.9,27.1,65.5c0,20.7-6.8,39.8-18.3,55.2
		C468.8,177.2,457.7,186.6,444.8,193.2L444.8,193.2z M430.8,199.1c2.4,0,4.4,1.9,4.4,4.4c0,2.4-2,4.4-4.4,4.4
		c-2.4,0-4.4-1.9-4.4-4.4C426.4,201.1,428.4,199.1,430.8,199.1L430.8,199.1z M316.1,62.7c-2.4,0-4.4,1.9-4.4,4.4
		c0,2.4,1.9,4.4,4.4,4.4c2.4,0,4.4-1.9,4.4-4.4C320.5,64.7,318.5,62.7,316.1,62.7L316.1,62.7z M463.8,134.5c0,2.5-2,4.4-4.4,4.4
		c-2.5,0-4.4-2-4.4-4.4v-19.6H432v0c-1,0-2-0.3-2.8-1c-1.9-1.6-2.1-4.4-0.6-6.2l27.1-32.5c0.8-1.2,2.1-1.9,3.7-1.9
		c2.5,0,4.4,2,4.4,4.4V106h5.4c2.5,0,4.4,2,4.4,4.4s-2,4.4-4.4,4.4h-5.4V134.5z M454.9,106.1h-13.4L454.9,90V106.1z M390.6,95.2
		c0-3.6,1.5-6.9,3.8-9.2c2.4-2.4,5.6-3.8,9.2-3.8c3.6,0,6.9,1.5,9.2,3.8c2.4,2.4,3.8,5.6,3.8,9.2c0,3.4-1.3,5.9-3.5,8
		c-2.6,2.5-6.6,4.6-11.2,6.9c-11.2,5.6-19.7,22.3-19.7,22.3c-1.1,2.2-0.3,4.9,1.9,6c0.7,0.3,1.3,0.5,2,0.5v0h35c2.5,0,4.4-2,4.4-4.4
		c0-2.5-2-4.4-4.4-4.4H394c2.9-4.3,7.2-9.6,11.9-12c5.2-2.6,9.9-5.1,13.4-8.5c3.9-3.7,6.3-8.2,6.3-14.5c0-6.1-2.5-11.5-6.4-15.5
		c-4-4-9.4-6.4-15.5-6.4c-6.1,0-11.5,2.5-15.5,6.4c-4,4-6.4,9.4-6.4,15.5c0,2.5,2,4.4,4.4,4.4C388.6,99.6,390.6,97.7,390.6,95.2
		L390.6,95.2z M371.9,218.5c17.1,5.7,32.9,4.8,43.6-4.1l0,0c0,0-0.5-1.4-1.3-3.7c-3.7-9.6-14.1-20-22-26c-3.5-2.7-6.6-4.3-6.9-4.1
		c-6,5-12.3,6.2-19.5,5.6c-7.2-0.6-14.2-4-19.2-10l-18.1-21.6c-5-6-7.1-13.4-6.5-20.6c0.6-7.2,3.5-13.7,9.4-18.7
		C329,107.8,319,94.1,317.2,92c-3.7-4.4-7.6-7.9-11-9.9c-2-1.2-3.2-1.9-3.4-1.9c-0.1,0-0.1,0.1-0.2,0.1c-10.5,8.9-14.1,24.3-11.5,42
		c2.8,18.5,12.4,39.4,28.2,58.3l0,0C335.2,199.5,354.1,212.6,371.9,218.5L371.9,218.5z M371.9,218.5"/>
</g>
</svg>
